G04 #@! TF.GenerationSoftware,KiCad,Pcbnew,(5.1.4)-1*
G04 #@! TF.CreationDate,2019-12-26T01:30:00-05:00*
G04 #@! TF.ProjectId,SingleBMS,53696e67-6c65-4424-9d53-2e6b69636164,rev?*
G04 #@! TF.SameCoordinates,Original*
G04 #@! TF.FileFunction,Copper,L2,Bot*
G04 #@! TF.FilePolarity,Positive*
%FSLAX46Y46*%
G04 Gerber Fmt 4.6, Leading zero omitted, Abs format (unit mm)*
G04 Created by KiCad (PCBNEW (5.1.4)-1) date 2019-12-26 01:30:00*
%MOMM*%
%LPD*%
G04 APERTURE LIST*
%ADD10O,2.400000X2.400000*%
%ADD11C,2.400000*%
%ADD12O,1.700000X1.700000*%
%ADD13R,1.700000X1.700000*%
%ADD14R,1.560000X1.560000*%
%ADD15C,1.560000*%
%ADD16O,1.980000X3.960000*%
%ADD17R,1.980000X3.960000*%
%ADD18R,1.905000X2.000000*%
%ADD19O,1.905000X2.000000*%
%ADD20O,1.600000X1.600000*%
%ADD21R,1.600000X1.600000*%
%ADD22C,0.800000*%
%ADD23C,0.381000*%
%ADD24C,0.254000*%
%ADD25C,0.250000*%
G04 APERTURE END LIST*
D10*
X228854000Y-100838000D03*
D11*
X208534000Y-100838000D03*
D10*
X228854000Y-107188000D03*
D11*
X208534000Y-107188000D03*
D10*
X228854000Y-113538000D03*
D11*
X208534000Y-113538000D03*
D10*
X228854000Y-119888000D03*
D11*
X208534000Y-119888000D03*
D10*
X228854000Y-126238000D03*
D11*
X208534000Y-126238000D03*
D10*
X228854000Y-132588000D03*
D11*
X208534000Y-132588000D03*
D10*
X228854000Y-138938000D03*
D11*
X208534000Y-138938000D03*
D10*
X228854000Y-145288000D03*
D11*
X208534000Y-145288000D03*
D10*
X170434000Y-145288000D03*
D11*
X190754000Y-145288000D03*
D10*
X170434000Y-138938000D03*
D11*
X190754000Y-138938000D03*
D10*
X170434000Y-132588000D03*
D11*
X190754000Y-132588000D03*
D10*
X170434000Y-126238000D03*
D11*
X190754000Y-126238000D03*
D10*
X170434000Y-119888000D03*
D11*
X190754000Y-119888000D03*
D10*
X170434000Y-113538000D03*
D11*
X190754000Y-113538000D03*
D10*
X170434000Y-107188000D03*
D11*
X190754000Y-107188000D03*
D10*
X170434000Y-100838000D03*
D11*
X190754000Y-100838000D03*
D12*
X198882000Y-115316000D03*
X201422000Y-120396000D03*
X198882000Y-117856000D03*
X201422000Y-115316000D03*
X198882000Y-120396000D03*
X201422000Y-112776000D03*
D13*
X198882000Y-112776000D03*
D12*
X201422000Y-128016000D03*
X201422000Y-122936000D03*
X198882000Y-125476000D03*
X201422000Y-117856000D03*
X198882000Y-130556000D03*
X198882000Y-128016000D03*
X198882000Y-133096000D03*
X201422000Y-133096000D03*
X198882000Y-122936000D03*
X201422000Y-130556000D03*
X201422000Y-125476000D03*
X239522000Y-34290000D03*
X242062000Y-36830000D03*
X242062000Y-39370000D03*
X239522000Y-41910000D03*
X239522000Y-44450000D03*
X242062000Y-26670000D03*
X242062000Y-29210000D03*
X242062000Y-34290000D03*
X242062000Y-41910000D03*
X242062000Y-44450000D03*
D13*
X239522000Y-26670000D03*
D12*
X239522000Y-29210000D03*
X239522000Y-31750000D03*
X242062000Y-31750000D03*
X239522000Y-36830000D03*
X239522000Y-39370000D03*
X239522000Y-46990000D03*
X242062000Y-46990000D03*
X239522000Y-71882000D03*
X242062000Y-74422000D03*
X242062000Y-76962000D03*
X239522000Y-79502000D03*
X239522000Y-82042000D03*
X242062000Y-64262000D03*
X242062000Y-66802000D03*
X242062000Y-71882000D03*
X242062000Y-79502000D03*
X242062000Y-82042000D03*
D13*
X239522000Y-64262000D03*
D12*
X239522000Y-66802000D03*
X239522000Y-69342000D03*
X242062000Y-69342000D03*
X239522000Y-74422000D03*
X239522000Y-76962000D03*
X239522000Y-84582000D03*
X242062000Y-84582000D03*
D13*
X176784000Y-33020000D03*
D12*
X176784000Y-35560000D03*
X176784000Y-38100000D03*
X176784000Y-40640000D03*
X176784000Y-43180000D03*
X176784000Y-45720000D03*
X176784000Y-48260000D03*
X176784000Y-50800000D03*
X176784000Y-53340000D03*
X176784000Y-55880000D03*
X176784000Y-58420000D03*
X176784000Y-60960000D03*
X176784000Y-63500000D03*
X176784000Y-66040000D03*
X176784000Y-68580000D03*
X176784000Y-71120000D03*
X176784000Y-73660000D03*
X176784000Y-76200000D03*
X176784000Y-78740000D03*
D14*
X143256000Y-33072000D03*
D15*
X143256000Y-35612000D03*
X143256000Y-78792000D03*
X143256000Y-38152000D03*
X143256000Y-40692000D03*
X143256000Y-43232000D03*
X143256000Y-45772000D03*
X143256000Y-48312000D03*
X143256000Y-50852000D03*
X143256000Y-53392000D03*
X143256000Y-55932000D03*
X143256000Y-58472000D03*
X143256000Y-61012000D03*
X143256000Y-63552000D03*
X143256000Y-66092000D03*
X143256000Y-68632000D03*
X143256000Y-71172000D03*
X143256000Y-73712000D03*
X143256000Y-76252000D03*
X168656000Y-33072000D03*
X168656000Y-35612000D03*
X168656000Y-38152000D03*
X168656000Y-40692000D03*
X168656000Y-43232000D03*
X168656000Y-45772000D03*
X168656000Y-48312000D03*
X168656000Y-50852000D03*
X168656000Y-53392000D03*
X168656000Y-55932000D03*
X168656000Y-58472000D03*
X168656000Y-61012000D03*
X168656000Y-63552000D03*
X168656000Y-66092000D03*
X168656000Y-68632000D03*
X168656000Y-71172000D03*
X168656000Y-73712000D03*
X168656000Y-76252000D03*
X168656000Y-78792000D03*
D12*
X135636000Y-78740000D03*
X135636000Y-76200000D03*
X135636000Y-73660000D03*
X135636000Y-71120000D03*
X135636000Y-68580000D03*
X135636000Y-66040000D03*
X135636000Y-63500000D03*
X135636000Y-60960000D03*
X135636000Y-58420000D03*
X135636000Y-55880000D03*
X135636000Y-53340000D03*
X135636000Y-50800000D03*
X135636000Y-48260000D03*
X135636000Y-45720000D03*
X135636000Y-43180000D03*
X135636000Y-40640000D03*
X135636000Y-38100000D03*
X135636000Y-35560000D03*
D13*
X135636000Y-33020000D03*
D16*
X216328000Y-19558000D03*
D17*
X211328000Y-19558000D03*
D13*
X165354000Y-22860000D03*
D12*
X162814000Y-22860000D03*
X160274000Y-22860000D03*
X157734000Y-22860000D03*
X155194000Y-22860000D03*
X152654000Y-22860000D03*
X150114000Y-22860000D03*
X147574000Y-22860000D03*
D17*
X189738000Y-19558000D03*
D16*
X194738000Y-19558000D03*
D18*
X197104000Y-96774000D03*
D19*
X199644000Y-96774000D03*
X202184000Y-96774000D03*
D20*
X151384000Y-99568000D03*
X143764000Y-102108000D03*
X151384000Y-102108000D03*
D21*
X143764000Y-99568000D03*
X143764000Y-105918000D03*
D20*
X151384000Y-108458000D03*
X143764000Y-108458000D03*
X151384000Y-105918000D03*
X151384000Y-112268000D03*
X143764000Y-114808000D03*
X151384000Y-114808000D03*
D21*
X143764000Y-112268000D03*
X143764000Y-118618000D03*
D20*
X151384000Y-121158000D03*
X143764000Y-121158000D03*
X151384000Y-118618000D03*
X151384000Y-124968000D03*
X143764000Y-127508000D03*
X151384000Y-127508000D03*
D21*
X143764000Y-124968000D03*
X143764000Y-131318000D03*
D20*
X151384000Y-133858000D03*
X143764000Y-133858000D03*
X151384000Y-131318000D03*
X151384000Y-137668000D03*
X143764000Y-140208000D03*
X151384000Y-140208000D03*
D21*
X143764000Y-137668000D03*
X143764000Y-144018000D03*
D20*
X151384000Y-146558000D03*
X143764000Y-146558000D03*
X151384000Y-144018000D03*
X247904000Y-146558000D03*
X255524000Y-144018000D03*
X247904000Y-144018000D03*
D21*
X255524000Y-146558000D03*
X255524000Y-140208000D03*
D20*
X247904000Y-137668000D03*
X255524000Y-137668000D03*
X247904000Y-140208000D03*
D21*
X255524000Y-133858000D03*
D20*
X247904000Y-131318000D03*
X255524000Y-131318000D03*
X247904000Y-133858000D03*
X247904000Y-127508000D03*
X255524000Y-124968000D03*
X247904000Y-124968000D03*
D21*
X255524000Y-127508000D03*
D20*
X247904000Y-121158000D03*
X255524000Y-118618000D03*
X247904000Y-118618000D03*
D21*
X255524000Y-121158000D03*
X255524000Y-114808000D03*
D20*
X247904000Y-112268000D03*
X255524000Y-112268000D03*
X247904000Y-114808000D03*
X247904000Y-108458000D03*
X255524000Y-105918000D03*
X247904000Y-105918000D03*
D21*
X255524000Y-108458000D03*
X255524000Y-102108000D03*
D20*
X247904000Y-99568000D03*
X255524000Y-99568000D03*
X247904000Y-102108000D03*
D22*
X203200000Y-68580000D03*
X203200000Y-56134000D03*
X205994000Y-72390000D03*
X257302000Y-100076000D03*
X260604000Y-86106000D03*
X262128000Y-110490000D03*
X262128000Y-143256000D03*
X179324000Y-23368000D03*
X197866000Y-28194000D03*
X209550000Y-33528000D03*
X188976000Y-29718000D03*
X193802000Y-28448000D03*
X202184000Y-25146000D03*
X253238000Y-61976000D03*
X261620000Y-60261068D03*
X257422933Y-58553067D03*
X262382000Y-58674000D03*
X255016000Y-71882000D03*
X255016000Y-69342000D03*
X259080000Y-69850000D03*
X259080000Y-68072000D03*
X258318000Y-64516000D03*
X255016000Y-74422000D03*
X258064000Y-54864000D03*
X258064000Y-52578000D03*
X230124000Y-24384000D03*
X236728000Y-24384000D03*
X228092000Y-34290000D03*
X228092000Y-36830000D03*
X228092000Y-39370000D03*
X228092000Y-41910000D03*
X228092000Y-44450000D03*
X224028000Y-16256000D03*
X228092000Y-46990000D03*
X220980000Y-48260000D03*
X232918000Y-16256000D03*
X209296000Y-69596000D03*
X198882000Y-107696000D03*
X198882000Y-103886000D03*
X226568000Y-71882000D03*
X223520000Y-74422000D03*
X226568000Y-69596000D03*
X226568000Y-76962000D03*
X226568000Y-79248000D03*
X222504000Y-81280000D03*
X255016000Y-82042000D03*
X255016000Y-79502000D03*
X226568000Y-84582000D03*
X226568000Y-82042000D03*
X217170000Y-63754000D03*
X220726000Y-60706000D03*
X184150000Y-41656000D03*
X201422000Y-75184000D03*
X248666000Y-24130000D03*
X248666000Y-43180000D03*
X249682000Y-24130000D03*
X249682000Y-40386000D03*
X246599000Y-19050000D03*
X246634000Y-38100000D03*
X245872000Y-18034000D03*
X245872000Y-35560000D03*
X244348000Y-25034980D03*
X244348000Y-33020000D03*
X179578000Y-39116000D03*
X179578000Y-37084000D03*
X193040000Y-43180000D03*
X193040000Y-55880000D03*
X199898000Y-68326000D03*
X190500000Y-55880000D03*
X198882000Y-68326000D03*
X205740000Y-53848000D03*
X205740000Y-61976000D03*
X248405933Y-58332000D03*
X251339067Y-58807067D03*
X229616000Y-22606000D03*
X227838000Y-22606000D03*
X251460000Y-22860000D03*
X248700067Y-22825933D03*
X212344000Y-68834000D03*
X230632000Y-68580000D03*
X213614000Y-64770000D03*
X227838000Y-64770000D03*
X217170000Y-86106000D03*
X231648000Y-78232000D03*
X257048000Y-84328000D03*
X254508000Y-84328000D03*
X258318000Y-80518000D03*
X250952000Y-75692000D03*
X207485010Y-88392000D03*
X217678000Y-97282000D03*
X207485010Y-90170000D03*
X259080000Y-136906000D03*
X207478943Y-86620067D03*
X217678958Y-95984895D03*
X207485010Y-85598000D03*
X217674734Y-94984902D03*
X207466809Y-84346201D03*
X217678000Y-93980000D03*
X207472876Y-83324134D03*
X217678000Y-92964000D03*
X207478943Y-82302067D03*
X217678000Y-91948000D03*
X207485010Y-81280000D03*
X217678000Y-90932000D03*
X238760000Y-51816000D03*
X247142000Y-51787500D03*
X240792000Y-48768000D03*
X225552000Y-48768000D03*
X221996000Y-83566000D03*
X239268000Y-50292000D03*
X210312000Y-68072000D03*
X240538000Y-50292000D03*
X213614000Y-63500000D03*
X235458000Y-54610000D03*
X212344000Y-84836000D03*
X242062000Y-61468000D03*
X222250000Y-72644000D03*
X241046000Y-61468000D03*
X233172000Y-57912000D03*
X235758701Y-55809949D03*
X212344000Y-66294000D03*
X240030000Y-62230000D03*
X212344000Y-72644000D03*
X239268000Y-61468000D03*
X231902000Y-55118000D03*
X235204000Y-56642000D03*
X233172000Y-53848000D03*
X234442000Y-55372000D03*
X234950000Y-51054000D03*
X251460000Y-53368500D03*
X234188000Y-52578000D03*
X250190000Y-53368500D03*
X246888000Y-57658000D03*
X268986000Y-58420000D03*
X246888000Y-55886000D03*
X266954000Y-57658000D03*
X255270000Y-60960000D03*
X260096000Y-74168000D03*
X243332000Y-61468000D03*
X256540000Y-86360000D03*
X249428000Y-56896000D03*
X264922000Y-56896000D03*
X247904000Y-54610000D03*
X262890000Y-56134000D03*
X249428000Y-54864000D03*
X252476000Y-55118000D03*
X248920000Y-53368500D03*
X252476000Y-54102000D03*
X235712000Y-27178000D03*
X211582000Y-44196000D03*
X236982000Y-27178000D03*
X212604067Y-44202067D03*
X247360373Y-24919100D03*
X213868000Y-44196000D03*
X245110000Y-23876000D03*
X215138000Y-44196000D03*
X186182000Y-22938999D03*
X186182000Y-25146000D03*
D23*
X203200000Y-68580000D02*
X203200000Y-56134000D01*
X257302000Y-100076000D02*
X260604000Y-96774000D01*
X260604000Y-96774000D02*
X260604000Y-86106000D01*
X256995942Y-112977942D02*
X257048000Y-113030000D01*
X262075942Y-110437942D02*
X262128000Y-110490000D01*
X256995942Y-110437942D02*
X262075942Y-110437942D01*
X257048000Y-113030000D02*
X257048000Y-119126000D01*
X256794000Y-112268000D02*
X255524000Y-112268000D01*
X256995942Y-112469942D02*
X256794000Y-112268000D01*
X256995942Y-112469942D02*
X256995942Y-112977942D01*
X256995942Y-110437942D02*
X256995942Y-112469942D01*
X256995942Y-107389942D02*
X255524000Y-105918000D01*
X256995942Y-110437942D02*
X256995942Y-107389942D01*
X256323999Y-119417999D02*
X255524000Y-118618000D01*
X256756001Y-119417999D02*
X256323999Y-119417999D01*
X257048000Y-119126000D02*
X256756001Y-119417999D01*
X257048000Y-123444000D02*
X255524000Y-124968000D01*
X257048000Y-119126000D02*
X257048000Y-123444000D01*
X257048000Y-129794000D02*
X255524000Y-131318000D01*
X257048000Y-123444000D02*
X257048000Y-129794000D01*
X256323999Y-138467999D02*
X255524000Y-137668000D01*
X258687943Y-138467999D02*
X256323999Y-138467999D01*
X259870501Y-137285441D02*
X258687943Y-138467999D01*
X259870501Y-135284030D02*
X259870501Y-137285441D01*
X257048000Y-132461529D02*
X259870501Y-135284030D01*
X257048000Y-129794000D02*
X257048000Y-132461529D01*
X256323999Y-143218001D02*
X255524000Y-144018000D01*
X256714501Y-142827499D02*
X256323999Y-143218001D01*
X256714501Y-138858501D02*
X256714501Y-142827499D01*
X255524000Y-137668000D02*
X256714501Y-138858501D01*
X255524000Y-144018000D02*
X261366000Y-144018000D01*
X261366000Y-144018000D02*
X262128000Y-143256000D01*
X176784000Y-33020000D02*
X176784000Y-25908000D01*
X176784000Y-25908000D02*
X179324000Y-23368000D01*
X204216000Y-28194000D02*
X209550000Y-33528000D01*
X188976000Y-29718000D02*
X192532000Y-29718000D01*
X192532000Y-29718000D02*
X193802000Y-28448000D01*
X202184000Y-28194000D02*
X202184000Y-25146000D01*
X202184000Y-28194000D02*
X204216000Y-28194000D01*
X197866000Y-28194000D02*
X202184000Y-28194000D01*
X261528431Y-60169499D02*
X261620000Y-60261068D01*
X254478816Y-60169499D02*
X261528431Y-60169499D01*
X253238000Y-61976000D02*
X253238000Y-61410315D01*
X253238000Y-61410315D02*
X254478816Y-60169499D01*
X257422933Y-58553067D02*
X262261067Y-58553067D01*
X262261067Y-58553067D02*
X262382000Y-58674000D01*
D24*
X255016000Y-71882000D02*
X255016000Y-69342000D01*
X259080000Y-69850000D02*
X259080000Y-68072000D01*
X259080000Y-68072000D02*
X259080000Y-65278000D01*
X259080000Y-65278000D02*
X258318000Y-64516000D01*
X255016000Y-71882000D02*
X255016000Y-74422000D01*
X258064000Y-54864000D02*
X258064000Y-52578000D01*
X228092000Y-34290000D02*
X228092000Y-36830000D01*
X228092000Y-36830000D02*
X228092000Y-39370000D01*
X228092000Y-39370000D02*
X228092000Y-41910000D01*
X228092000Y-41910000D02*
X228092000Y-44450000D01*
X228092000Y-46990000D02*
X222250000Y-46990000D01*
X222250000Y-46990000D02*
X220980000Y-48260000D01*
D23*
X254724001Y-105118001D02*
X255524000Y-105918000D01*
X254333499Y-104727499D02*
X254724001Y-105118001D01*
X254333499Y-100758501D02*
X254333499Y-104727499D01*
X255524000Y-99568000D02*
X254333499Y-100758501D01*
X209550000Y-33528000D02*
X210566000Y-33528000D01*
X224028000Y-20066000D02*
X224028000Y-16256000D01*
X210566000Y-33528000D02*
X224028000Y-20066000D01*
X224028000Y-16256000D02*
X232918000Y-16256000D01*
X232918000Y-20574000D02*
X236728000Y-24384000D01*
X232918000Y-16256000D02*
X232918000Y-20574000D01*
X236728000Y-24384000D02*
X230124000Y-24384000D01*
X206502000Y-72390000D02*
X205994000Y-72390000D01*
X209296000Y-69596000D02*
X206502000Y-72390000D01*
X198882000Y-107696000D02*
X198882000Y-103886000D01*
D24*
X222952038Y-74422000D02*
X223520000Y-74422000D01*
X221522999Y-72992961D02*
X222952038Y-74422000D01*
X221522999Y-72295039D02*
X221522999Y-72992961D01*
X226568000Y-71882000D02*
X221936038Y-71882000D01*
X221936038Y-71882000D02*
X221522999Y-72295039D01*
X226568000Y-71882000D02*
X226568000Y-69596000D01*
X226568000Y-76962000D02*
X226568000Y-79248000D01*
X224536000Y-79248000D02*
X226568000Y-79248000D01*
X222504000Y-81280000D02*
X224536000Y-79248000D01*
X222504000Y-75438000D02*
X223520000Y-74422000D01*
X222504000Y-81280000D02*
X222504000Y-75438000D01*
X255016000Y-82042000D02*
X255016000Y-79502000D01*
X226568000Y-84582000D02*
X226568000Y-82042000D01*
X217170000Y-63754000D02*
X220218000Y-60706000D01*
X220218000Y-60706000D02*
X220726000Y-60706000D01*
X177888000Y-33020000D02*
X176784000Y-33020000D01*
X184150000Y-39282000D02*
X177888000Y-33020000D01*
X184150000Y-41656000D02*
X184150000Y-39282000D01*
D23*
X204216000Y-72390000D02*
X205994000Y-72390000D01*
X201422000Y-75184000D02*
X204216000Y-72390000D01*
D24*
X248666000Y-24130000D02*
X248666000Y-43180000D01*
X249682000Y-24130000D02*
X249682000Y-40386000D01*
X246599000Y-19050000D02*
X246599000Y-38065000D01*
X246599000Y-38065000D02*
X246634000Y-38100000D01*
X245872000Y-18034000D02*
X245872000Y-35560000D01*
X244348000Y-25034980D02*
X244348000Y-33020000D01*
X179578000Y-39116000D02*
X179578000Y-37084000D01*
X156043999Y-22010001D02*
X155194000Y-22860000D01*
X156371001Y-21682999D02*
X156043999Y-22010001D01*
X158298961Y-21682999D02*
X156371001Y-21682999D01*
X158911001Y-22295039D02*
X158298961Y-21682999D01*
X158911001Y-41107001D02*
X158911001Y-22295039D01*
X168656000Y-50852000D02*
X158911001Y-41107001D01*
X157734000Y-42470000D02*
X157734000Y-22860000D01*
X168656000Y-53392000D02*
X157734000Y-42470000D01*
D25*
X190754000Y-126238000D02*
X190754000Y-125823700D01*
D24*
X193040000Y-43180000D02*
X193040000Y-55880000D01*
X193439999Y-56279999D02*
X193040000Y-55880000D01*
X200297999Y-63137999D02*
X193439999Y-56279999D01*
X200297999Y-67926001D02*
X200297999Y-63137999D01*
X199898000Y-68326000D02*
X200297999Y-67926001D01*
X195834000Y-61214000D02*
X190500000Y-55880000D01*
X195834000Y-65278000D02*
X195834000Y-61214000D01*
X198882000Y-68326000D02*
X195834000Y-65278000D01*
X205740000Y-53848000D02*
X205740000Y-61976000D01*
X248405933Y-58332000D02*
X248881000Y-58807067D01*
X248881000Y-58807067D02*
X251339067Y-58807067D01*
X229616000Y-22606000D02*
X227838000Y-22606000D01*
X251460000Y-22860000D02*
X248734134Y-22860000D01*
X248734134Y-22860000D02*
X248700067Y-22825933D01*
X212344000Y-68834000D02*
X230378000Y-68834000D01*
X230378000Y-68834000D02*
X230632000Y-68580000D01*
X213614000Y-64770000D02*
X227838000Y-64770000D01*
X231648000Y-84074000D02*
X231648000Y-79248000D01*
X217170000Y-86106000D02*
X229616000Y-86106000D01*
X229616000Y-86106000D02*
X231648000Y-84074000D01*
X231648000Y-79248000D02*
X231648000Y-78232000D01*
X257048000Y-84328000D02*
X254508000Y-84328000D01*
X258318000Y-80518000D02*
X253492000Y-75692000D01*
X253492000Y-75692000D02*
X250952000Y-75692000D01*
X207485010Y-88392000D02*
X216375010Y-97282000D01*
X216375010Y-97282000D02*
X217678000Y-97282000D01*
X207485010Y-90170000D02*
X217645010Y-100330000D01*
X259080000Y-135225398D02*
X259080000Y-136906000D01*
X256585601Y-132730999D02*
X259080000Y-135225398D01*
X255158999Y-132730999D02*
X256585601Y-132730999D01*
X224255962Y-100330000D02*
X246776999Y-122851037D01*
X217645010Y-100330000D02*
X224255962Y-100330000D01*
X246776999Y-122851037D02*
X246776999Y-125508961D01*
X246776999Y-125508961D02*
X247363039Y-126095001D01*
X247363039Y-126095001D02*
X248523001Y-126095001D01*
X248523001Y-126095001D02*
X255158999Y-132730999D01*
X207478943Y-86620067D02*
X216843771Y-95984895D01*
X216843771Y-95984895D02*
X217678958Y-95984895D01*
X207485010Y-85598000D02*
X216871912Y-94984902D01*
X216871912Y-94984902D02*
X217674734Y-94984902D01*
X207466809Y-84346201D02*
X217100608Y-93980000D01*
X217100608Y-93980000D02*
X217678000Y-93980000D01*
X217389001Y-92675001D02*
X217678000Y-92964000D01*
X207472876Y-83324134D02*
X216823743Y-92675001D01*
X216823743Y-92675001D02*
X217389001Y-92675001D01*
X207478943Y-82302067D02*
X217124876Y-91948000D01*
X217124876Y-91948000D02*
X217678000Y-91948000D01*
X207485010Y-81280000D02*
X217137010Y-90932000D01*
X217137010Y-90932000D02*
X217678000Y-90932000D01*
X238760000Y-51816000D02*
X247113500Y-51816000D01*
X247113500Y-51816000D02*
X247142000Y-51787500D01*
X240792000Y-48768000D02*
X225552000Y-48768000D01*
X211162989Y-64875049D02*
X225746038Y-50292000D01*
X221996000Y-83566000D02*
X211162989Y-72732989D01*
X211162989Y-72732989D02*
X211162989Y-64875049D01*
X225746038Y-50292000D02*
X239268000Y-50292000D01*
X239810999Y-49564999D02*
X240538000Y-50292000D01*
X225830972Y-49564999D02*
X239810999Y-49564999D01*
X210312000Y-65083970D02*
X210341985Y-65053985D01*
X210312000Y-68072000D02*
X210312000Y-65083970D01*
X210341985Y-65053985D02*
X225830972Y-49564999D01*
X235009962Y-54610000D02*
X235458000Y-54610000D01*
X233520961Y-53120999D02*
X235009962Y-54610000D01*
X213614000Y-63500000D02*
X223993001Y-53120999D01*
X223993001Y-53120999D02*
X233520961Y-53120999D01*
X243239001Y-62645001D02*
X242062000Y-61468000D01*
X243239001Y-64826961D02*
X243239001Y-62645001D01*
X242626961Y-65439001D02*
X243239001Y-64826961D01*
X222100040Y-84836000D02*
X238957039Y-67979001D01*
X241497039Y-65439001D02*
X242626961Y-65439001D01*
X212344000Y-84836000D02*
X222100040Y-84836000D01*
X238957039Y-67979001D02*
X240086961Y-67979001D01*
X240086961Y-67979001D02*
X240699001Y-67366961D01*
X240699001Y-67366961D02*
X240699001Y-66237039D01*
X240699001Y-66237039D02*
X241497039Y-65439001D01*
X231205400Y-72644000D02*
X238410399Y-65439001D01*
X238410399Y-65439001D02*
X240633601Y-65439001D01*
X240633601Y-65439001D02*
X240757001Y-65315601D01*
X222250000Y-72644000D02*
X231205400Y-72644000D01*
X240757001Y-65315601D02*
X240757001Y-61756999D01*
X240757001Y-61756999D02*
X241046000Y-61468000D01*
X235931001Y-55982249D02*
X235758701Y-55809949D01*
X235931001Y-56990961D02*
X235931001Y-55982249D01*
X233172000Y-57912000D02*
X235009962Y-57912000D01*
X235009962Y-57912000D02*
X235931001Y-56990961D01*
X239265398Y-62230000D02*
X240030000Y-62230000D01*
X212344000Y-66294000D02*
X235201398Y-66294000D01*
X235201398Y-66294000D02*
X239265398Y-62230000D01*
X235169001Y-65566999D02*
X239268000Y-61468000D01*
X211995039Y-65566999D02*
X235169001Y-65566999D01*
X211616999Y-65945039D02*
X211995039Y-65566999D01*
X212344000Y-72644000D02*
X211616999Y-71916999D01*
X211616999Y-71916999D02*
X211616999Y-65945039D01*
X231902000Y-55118000D02*
X233426000Y-56642000D01*
X233426000Y-56642000D02*
X235204000Y-56642000D01*
X233172000Y-53848000D02*
X233172000Y-54102000D01*
X233172000Y-54102000D02*
X234442000Y-55372000D01*
X234950000Y-51054000D02*
X243332000Y-51054000D01*
X243332000Y-51054000D02*
X249145500Y-51054000D01*
X249145500Y-51054000D02*
X251460000Y-53368500D01*
X234188000Y-52578000D02*
X249399500Y-52578000D01*
X249399500Y-52578000D02*
X250190000Y-53368500D01*
X267871932Y-59534068D02*
X268986000Y-58420000D01*
X248198383Y-59534068D02*
X267871932Y-59534068D01*
X246888000Y-57658000D02*
X246888000Y-58223685D01*
X246888000Y-58223685D02*
X248198383Y-59534068D01*
X249114038Y-57658000D02*
X266954000Y-57658000D01*
X247742037Y-56285999D02*
X249114038Y-57658000D01*
X246888000Y-55886000D02*
X247287999Y-56285999D01*
X247287999Y-56285999D02*
X247742037Y-56285999D01*
X255270000Y-60960000D02*
X256286000Y-60960000D01*
X256286000Y-60960000D02*
X260096000Y-64770000D01*
X260096000Y-64770000D02*
X260096000Y-74168000D01*
X241497039Y-68164999D02*
X240792000Y-68870038D01*
X242626961Y-68164999D02*
X241497039Y-68164999D01*
X243693011Y-67098949D02*
X242626961Y-68164999D01*
X243693011Y-62394696D02*
X243693011Y-67098949D01*
X243332000Y-61468000D02*
X243332000Y-62033685D01*
X243332000Y-62033685D02*
X243693011Y-62394696D01*
X242098038Y-86360000D02*
X256540000Y-86360000D01*
X240792000Y-68870038D02*
X240792000Y-85053962D01*
X240792000Y-85053962D02*
X242098038Y-86360000D01*
X249428000Y-56896000D02*
X264922000Y-56896000D01*
X247904000Y-54610000D02*
X249428000Y-56134000D01*
X249428000Y-56134000D02*
X262890000Y-56134000D01*
X249428000Y-54864000D02*
X252222000Y-54864000D01*
X252222000Y-54864000D02*
X252476000Y-55118000D01*
X248920000Y-53368500D02*
X249653500Y-54102000D01*
X249653500Y-54102000D02*
X252476000Y-54102000D01*
X235712000Y-27178000D02*
X228600000Y-27178000D01*
X228600000Y-27178000D02*
X211582000Y-44196000D01*
X233645001Y-27905001D02*
X233372010Y-27632010D01*
X236982000Y-27178000D02*
X236254999Y-27905001D01*
X236254999Y-27905001D02*
X233645001Y-27905001D01*
X233372010Y-27632010D02*
X229174124Y-27632010D01*
X229174124Y-27632010D02*
X212604067Y-44202067D01*
X215299001Y-45627001D02*
X213868000Y-44196000D01*
X245166961Y-45627001D02*
X215299001Y-45627001D01*
X247939000Y-42854962D02*
X245166961Y-45627001D01*
X247360373Y-24919100D02*
X247939000Y-25497727D01*
X247939000Y-25497727D02*
X247939000Y-42854962D01*
X240086961Y-30387001D02*
X228946999Y-30387001D01*
X240699001Y-29774961D02*
X240086961Y-30387001D01*
X240699001Y-28645039D02*
X240699001Y-29774961D01*
X228946999Y-30387001D02*
X215138000Y-44196000D01*
X244431018Y-23876000D02*
X243239001Y-25068017D01*
X245110000Y-23876000D02*
X244431018Y-23876000D01*
X243239001Y-25068017D02*
X243239001Y-27234961D01*
X243239001Y-27234961D02*
X242626961Y-27847001D01*
X242626961Y-27847001D02*
X241497039Y-27847001D01*
X241497039Y-27847001D02*
X240699001Y-28645039D01*
X186182000Y-22938999D02*
X186182000Y-25146000D01*
M02*
