M48
; DRILL file {KiCad (5.1.4)-1} date 26/12/2019 01:30:07
; FORMAT={-:-/ absolute / inch / decimal}
; #@! TF.CreationDate,2019-12-26T01:30:07-05:00
; #@! TF.GenerationSoftware,Kicad,Pcbnew,(5.1.4)-1
; #@! TF.FileFunction,Plated,1,2,PTH
FMAT,2
INCH
T1C0.0157
T2C0.0315
T3C0.0394
T4C0.0409
T5C0.0433
T6C0.0472
T7C0.0520
%
G90
G05
T1
X7.06Y-0.92
X7.07Y-1.46
X7.07Y-1.54
X7.25Y-1.64
X7.33Y-0.9031
X7.33Y-0.99
X7.44Y-1.17
X7.5Y-2.2
X7.6Y-1.7
X7.6Y-2.2
X7.63Y-1.12
X7.79Y-1.11
X7.83Y-2.69
X7.83Y-4.09
X7.83Y-4.24
X7.87Y-2.69
X7.93Y-2.96
X7.96Y-0.99
X8.0Y-2.21
X8.0Y-2.7
X8.1Y-2.12
X8.1Y-2.44
X8.11Y-2.85
X8.168Y-3.3207
X8.1682Y-3.2805
X8.1685Y-3.2402
X8.1685Y-3.4102
X8.1687Y-3.2
X8.1687Y-3.37
X8.1687Y-3.48
X8.1687Y-3.55
X8.24Y-2.74
X8.25Y-1.32
X8.28Y-2.68
X8.33Y-1.74
X8.36Y-2.61
X8.36Y-2.71
X8.36Y-2.86
X8.36Y-3.34
X8.3702Y-1.7402
X8.41Y-2.5
X8.41Y-2.55
X8.42Y-1.74
X8.47Y-1.74
X8.55Y-2.51
X8.55Y-3.39
X8.5699Y-3.7396
X8.57Y-3.58
X8.57Y-3.62
X8.57Y-3.66
X8.57Y-3.7
X8.57Y-3.83
X8.57Y-3.7789
X8.69Y-2.39
X8.7Y-1.9
X8.74Y-3.29
X8.75Y-2.86
X8.76Y-3.2
X8.8Y-2.93
X8.82Y-0.64
X8.88Y-1.92
X8.92Y-2.74
X8.92Y-2.83
X8.92Y-3.03
X8.92Y-3.12
X8.92Y-3.23
X8.92Y-3.33
X8.97Y-0.89
X8.97Y-2.55
X8.98Y-1.35
X8.98Y-1.45
X8.98Y-1.55
X8.98Y-1.65
X8.98Y-1.75
X8.98Y-1.85
X9.04Y-0.89
X9.06Y-0.96
X9.08Y-2.7
X9.12Y-3.08
X9.13Y-2.17
X9.17Y-0.64
X9.18Y-2.12
X9.18Y-2.28
X9.22Y-2.07
X9.23Y-2.18
X9.25Y-2.01
X9.26Y-2.23
X9.27Y-2.15
X9.28Y-1.07
X9.2818Y-2.1972
X9.32Y-0.96
X9.33Y-1.07
X9.4Y-2.04
X9.42Y-1.98
X9.42Y-2.42
X9.45Y-2.45
X9.47Y-1.98
X9.48Y-1.92
X9.49Y-2.42
X9.53Y-2.42
X9.58Y-2.42
X9.62Y-0.9856
X9.62Y-1.3
X9.65Y-0.94
X9.68Y-0.71
X9.68Y-1.4
X9.7086Y-0.75
X9.71Y-1.5
X9.72Y-2.2002
X9.72Y-2.27
X9.73Y-2.0389
X9.7386Y-0.9811
X9.76Y-2.15
X9.7798Y-2.2965
X9.79Y-0.95
X9.79Y-1.7
X9.7913Y-0.8987
X9.8Y-2.1011
X9.82Y-2.16
X9.82Y-2.24
X9.83Y-0.95
X9.83Y-1.59
X9.85Y-2.1011
X9.88Y-2.98
X9.8952Y-2.3152
X9.9Y-0.9
X9.9Y-2.1011
X9.94Y-2.13
X9.94Y-2.17
X9.97Y-2.44
X10.02Y-3.32
X10.04Y-2.73
X10.04Y-2.83
X10.04Y-2.93
X10.04Y-3.13
X10.04Y-3.23
X10.05Y-2.4
X10.1Y-3.4
X10.12Y-3.32
X10.13Y-3.94
X10.1348Y-2.3052
X10.16Y-2.07
X10.16Y-2.16
X10.17Y-2.54
X10.17Y-3.17
X10.2Y-2.68
X10.2Y-2.75
X10.2Y-5.39
X10.24Y-2.92
X10.26Y-3.39
X10.3Y-2.3725
X10.32Y-4.35
X10.32Y-5.64
X10.33Y-2.31
X10.35Y-2.21
X10.43Y-2.24
X10.51Y-2.27
X10.59Y-2.3
T2
X5.66Y-4.67
X5.66Y-4.77
X5.96Y-4.67
X5.96Y-4.77
X5.66Y-5.42
X5.66Y-5.52
X5.96Y-5.42
X5.96Y-5.52
X9.76Y-4.92
X9.76Y-5.02
X10.06Y-4.92
X10.06Y-5.02
X9.76Y-4.42
X9.76Y-4.52
X10.06Y-4.42
X10.06Y-4.52
X5.66Y-4.17
X5.66Y-4.27
X5.96Y-4.17
X5.96Y-4.27
X9.76Y-5.42
X9.76Y-5.52
X10.06Y-5.42
X10.06Y-5.52
X5.66Y-4.92
X5.66Y-5.02
X5.96Y-4.92
X5.96Y-5.02
X9.76Y-5.67
X9.76Y-5.77
X10.06Y-5.67
X10.06Y-5.77
X9.76Y-4.67
X9.76Y-4.77
X10.06Y-4.67
X10.06Y-4.77
X9.76Y-3.92
X9.76Y-4.02
X10.06Y-3.92
X10.06Y-4.02
X5.66Y-4.42
X5.66Y-4.52
X5.96Y-4.42
X5.96Y-4.52
X5.66Y-3.92
X5.66Y-4.02
X5.96Y-3.92
X5.96Y-4.02
X5.66Y-5.17
X5.66Y-5.27
X5.96Y-5.17
X5.96Y-5.27
X9.76Y-5.17
X9.76Y-5.27
X10.06Y-5.17
X10.06Y-5.27
X9.76Y-4.17
X9.76Y-4.27
X10.06Y-4.17
X10.06Y-4.27
X5.66Y-5.67
X5.66Y-5.77
X5.96Y-5.67
X5.96Y-5.77
T3
X5.34Y-1.3
X5.34Y-1.4
X5.34Y-1.5
X5.34Y-1.6
X5.34Y-1.7
X5.34Y-1.8
X5.34Y-1.9
X5.34Y-2.0
X5.34Y-2.1
X5.34Y-2.2
X5.34Y-2.3
X5.34Y-2.4
X5.34Y-2.5
X5.34Y-2.6
X5.34Y-2.7
X5.34Y-2.8
X5.34Y-2.9
X5.34Y-3.0
X5.34Y-3.1
X6.96Y-1.3
X6.96Y-1.4
X6.96Y-1.5
X6.96Y-1.6
X6.96Y-1.7
X6.96Y-1.8
X6.96Y-1.9
X6.96Y-2.0
X6.96Y-2.1
X6.96Y-2.2
X6.96Y-2.3
X6.96Y-2.4
X6.96Y-2.5
X6.96Y-2.6
X6.96Y-2.7
X6.96Y-2.8
X6.96Y-2.9
X6.96Y-3.0
X6.96Y-3.1
X5.81Y-0.9
X5.91Y-0.9
X6.01Y-0.9
X6.11Y-0.9
X6.21Y-0.9
X6.31Y-0.9
X6.41Y-0.9
X6.51Y-0.9
X9.43Y-2.53
X9.43Y-2.63
X9.43Y-2.73
X9.43Y-2.83
X9.43Y-2.93
X9.43Y-3.03
X9.43Y-3.13
X9.43Y-3.23
X9.43Y-3.33
X9.53Y-2.53
X9.53Y-2.63
X9.53Y-2.73
X9.53Y-2.83
X9.53Y-2.93
X9.53Y-3.03
X9.53Y-3.13
X9.53Y-3.23
X9.53Y-3.33
X7.83Y-4.44
X7.83Y-4.54
X7.83Y-4.64
X7.83Y-4.74
X7.83Y-4.84
X7.83Y-4.94
X7.83Y-5.04
X7.83Y-5.14
X7.83Y-5.24
X7.93Y-4.44
X7.93Y-4.54
X7.93Y-4.64
X7.93Y-4.74
X7.93Y-4.84
X7.93Y-4.94
X7.93Y-5.04
X7.93Y-5.14
X7.93Y-5.24
X9.43Y-1.05
X9.43Y-1.15
X9.43Y-1.25
X9.43Y-1.35
X9.43Y-1.45
X9.43Y-1.55
X9.43Y-1.65
X9.43Y-1.75
X9.43Y-1.85
X9.53Y-1.05
X9.53Y-1.15
X9.53Y-1.25
X9.53Y-1.35
X9.53Y-1.45
X9.53Y-1.55
X9.53Y-1.65
X9.53Y-1.75
X9.53Y-1.85
T4
X5.64Y-1.302
X5.64Y-1.402
X5.64Y-1.502
X5.64Y-1.602
X5.64Y-1.702
X5.64Y-1.802
X5.64Y-1.902
X5.64Y-2.002
X5.64Y-2.102
X5.64Y-2.202
X5.64Y-2.302
X5.64Y-2.402
X5.64Y-2.502
X5.64Y-2.602
X5.64Y-2.702
X5.64Y-2.802
X5.64Y-2.902
X5.64Y-3.002
X5.64Y-3.102
X6.64Y-1.302
X6.64Y-1.402
X6.64Y-1.502
X6.64Y-1.602
X6.64Y-1.702
X6.64Y-1.802
X6.64Y-1.902
X6.64Y-2.002
X6.64Y-2.102
X6.64Y-2.202
X6.64Y-2.302
X6.64Y-2.402
X6.64Y-2.502
X6.64Y-2.602
X6.64Y-2.702
X6.64Y-2.802
X6.64Y-2.902
X6.64Y-3.002
X6.64Y-3.102
T5
X7.76Y-3.81
X7.86Y-3.81
X7.96Y-3.81
T6
X8.21Y-4.72
X9.01Y-4.72
X6.71Y-3.97
X7.51Y-3.97
X6.71Y-5.47
X7.51Y-5.47
X8.21Y-4.47
X9.01Y-4.47
X6.71Y-4.97
X7.51Y-4.97
X8.21Y-3.97
X9.01Y-3.97
X6.71Y-4.47
X7.51Y-4.47
X6.71Y-4.22
X7.51Y-4.22
X8.21Y-5.47
X9.01Y-5.47
X8.21Y-4.97
X9.01Y-4.97
X8.21Y-5.22
X9.01Y-5.22
X6.71Y-4.72
X7.51Y-4.72
X6.71Y-5.22
X7.51Y-5.22
X6.71Y-5.72
X7.51Y-5.72
X8.21Y-5.72
X9.01Y-5.72
X8.21Y-4.22
X9.01Y-4.22
T7
X7.47Y-0.77
X7.6669Y-0.77
X8.32Y-0.77
X8.5169Y-0.77
T0
M30
